<svg xmlns="http://www.w3.org/2000/svg" viewBox="0 0 200 200">
<path d="M 195 100 Q 185.9 113.6 190.4 129.4 Q 177.5 139.5 176.9 155.8 Q 161.5 161.5 155.8 176.9 Q 139.5 177.5 129.4 190.4 Q 113.6 185.9 100 195 Q 86.4 185.9 70.6 190.4 Q 60.5 177.5 44.2 176.9 Q 38.5 161.5 23.1 155.8 Q 22.5 139.5 9.6 129.4 Q 14.1 113.6 5 100 Q 14.1 86.4 9.6 70.6 Q 22.5 60.5 23.1 44.2 Q 38.5 38.5 44.2 23.1 Q 60.5 22.5 70.6 9.6 Q 86.4 14.1 100 5 Q 113.6 14.1 129.4 9.6 Q 139.5 22.5 155.8 23.1 Q 161.5 38.5 176.9 44.2 Q 177.5 60.5 190.4 70.6 Q 185.9 86.4 195 100 Z" fill="#c0392b"/>
<circle cx="100" cy="100" r="75" fill="none" stroke="#fff" stroke-width="4"/>
<circle cx="100" cy="100" r="68" fill="none" stroke="#fff" stroke-width="1.5"/>
<line x1="70" y1="50" x2="130" y2="50" stroke="#fff" stroke-width="1.5"/>
<line x1="75" y1="56" x2="125" y2="56" stroke="#fff" stroke-width="1"/>
<text x="100" y="48" text-anchor="middle" font-family="Impact,Arial Black,sans-serif" font-size="22" font-weight="700" fill="#fff" font-style="italic">New</text>
<rect x="18" y="85" width="170" height="36" rx="2" fill="#c0392b" transform="rotate(-15,100,103)"/>
<text x="100" y="110" text-anchor="middle" font-family="Impact,Arial Black,sans-serif" font-size="28" font-weight="700" letter-spacing="3" fill="#fff" transform="rotate(-15,100,103)">PIZZA REIMS</text>
<polygon points="100,130 88,160 112,160" fill="#fff"/>
<circle cx="95" cy="150" r="3" fill="#c0392b"/>
<circle cx="105" cy="147" r="2.5" fill="#c0392b"/>
<circle cx="100" cy="156" r="2" fill="#c0392b"/>
</svg>
